<?xml version="1.0" encoding="utf-8"?>
<svg xmlns="http://www.w3.org/2000/svg" viewBox="-16.175 -11.536 514.182 512.749" style="shape-rendering: geometricprecision;" xmlns:bx="https://boxy-svg.com" width="1000px" height="997.213049076008px"><defs><bx:export><bx:file format="svg" path="earth-globe.svg" width="1000" height="997.213049076008"/></bx:export></defs><ellipse style="fill: rgb(255, 255, 255);" cx="240.486" cy="244.778" rx="255.856" ry="255.856"/><g transform="matrix(1, 0, 0, 1, -14.440874, -10.830119)"><path style="opacity: 1;" fill="#295fa6" d="M 254.5,-0.5 C 260.5,-0.5 266.5,-0.5 272.5,-0.5C 309.466,2.42774 344.466,12.5944 377.5,30C 384.241,33.6933 390.574,37.8599 396.5,42.5C 393.287,42.19 390.287,42.5233 387.5,43.5C 381.977,45.4644 376.31,46.9644 370.5,48C 368.981,49.3513 367.648,50.8513 366.5,52.5C 364.577,53.3078 362.577,53.8078 360.5,54C 361.357,54.6891 362.023,55.5224 362.5,56.5C 357.38,62.575 352.38,68.7417 347.5,75C 342.02,78.8176 336.853,82.9843 332,87.5C 330.734,93.595 331.734,99.2616 335,104.5C 335.893,105.081 336.893,105.415 338,105.5C 341.503,104.502 344.67,102.835 347.5,100.5C 349.997,104.161 351.997,108.161 353.5,112.5C 353.297,114.208 352.464,115.541 351,116.5C 350.608,121.103 351.442,121.436 353.5,117.5C 357.023,116.858 360.356,115.692 363.5,114C 366.446,108.345 369.112,102.512 371.5,96.5C 368.108,94.3807 366.941,91.3807 368,87.5C 372.319,82.8375 376.319,77.8375 380,72.5C 383.484,67.6334 387.318,67.3001 391.5,71.5C 388.182,75.3181 384.682,78.9848 381,82.5C 378.625,87.6226 379.458,92.1226 383.5,96C 388.249,96.4825 392.916,95.9825 397.5,94.5C 399.512,94.8396 401.512,95.1729 403.5,95.5C 403.5,96.5 403.5,97.5 403.5,98.5C 397.657,98.2781 391.99,99.1115 386.5,101C 388.315,104.382 388.649,107.882 387.5,111.5C 385.772,109.774 383.772,108.441 381.5,107.5C 380.159,111.384 379.325,115.384 379,119.5C 376.318,122.462 373.151,123.129 369.5,121.5C 362.986,123.491 356.32,123.991 349.5,123C 348.5,122.167 347.5,121.333 346.5,120.5C 348.312,117.101 348.979,113.434 348.5,109.5C 346.418,109.472 344.584,110.139 343,111.5C 343.143,116.08 342.976,120.58 342.5,125C 333.401,129.092 325.734,135.092 319.5,143C 314.48,145.673 309.147,147.506 303.5,148.5C 306.163,150.992 308.996,153.326 312,155.5C 313.367,159.7 313.867,164.033 313.5,168.5C 306.201,169.35 298.868,169.683 291.5,169.5C 291.169,177.528 291.502,185.528 292.5,193.5C 295.329,194.747 297.995,196.247 300.5,198C 304.458,197.245 308.458,196.245 312.5,195C 314.049,193.786 315.215,192.286 316,190.5C 316.397,183.698 319.73,179.031 326,176.5C 325.564,172.581 327.23,170.248 331,169.5C 333.12,170.459 335.287,170.626 337.5,170C 339.56,168.304 341.893,167.137 344.5,166.5C 352.448,171.281 358.948,177.614 364,185.5C 364.684,186.784 364.517,187.951 363.5,189C 360.495,190.17 357.495,191.336 354.5,192.5C 356.67,194.086 359.004,195.42 361.5,196.5C 364.138,192.431 366.305,188.098 368,183.5C 369.067,182.809 370.234,182.309 371.5,182C 366,177.167 360.5,172.333 355,167.5C 352.892,164.862 353.059,162.528 355.5,160.5C 362.436,165.266 368.936,170.6 375,176.5C 377.113,182.844 379.613,189.011 382.5,195C 383.167,195.667 383.833,195.667 384.5,195C 385.833,193.333 387.167,191.667 388.5,190C 386.968,187.966 385.635,185.799 384.5,183.5C 387.222,180.514 390.389,179.514 394,180.5C 394.893,192.129 401.226,197.796 413,197.5C 416.664,197.617 420.164,196.951 423.5,195.5C 423.833,195.833 424.167,196.167 424.5,196.5C 423.021,201.081 421.855,205.748 421,210.5C 420.205,212.901 419.038,215.068 417.5,217C 411.903,218.456 406.237,218.789 400.5,218C 394.172,215.837 387.838,213.67 381.5,211.5C 379.617,211.876 378.117,212.876 377,214.5C 376.482,217.023 375.148,219.023 373,220.5C 364.991,215.079 356.491,210.579 347.5,207C 348.46,203.27 348.793,199.437 348.5,195.5C 335.723,194.073 323.39,195.907 311.5,201C 308.287,201.703 305.121,201.536 302,200.5C 293.783,205.606 289.117,212.939 288,222.5C 285.458,225.617 282.458,228.283 279,230.5C 275.078,237.342 271.412,244.342 268,251.5C 268.742,260.494 268.576,269.494 267.5,278.5C 267.507,282.519 268.673,286.185 271,289.5C 276.746,297.917 283.246,305.75 290.5,313C 291.873,313.875 293.373,314.375 295,314.5C 301.022,312.889 307.189,312.055 313.5,312C 318.806,308.609 324.472,307.442 330.5,308.5C 332.288,310.576 333.954,312.743 335.5,315C 338.167,315.333 340.833,315.667 343.5,316C 344,316.5 344.5,317 345,317.5C 344.725,323.818 344.725,330.151 345,336.5C 347.634,341.147 350.301,345.813 353,350.5C 354.344,356.876 355.844,363.209 357.5,369.5C 355.674,375.156 353.84,380.823 352,386.5C 351.333,388.833 351.333,391.167 352,393.5C 357.177,409.204 362.511,424.87 368,440.5C 368.894,444.863 369.894,449.196 371,453.5C 371.833,454.333 372.667,455.167 373.5,456C 382.111,455.878 390.444,454.211 398.5,451C 407.729,444.035 412.895,434.869 414,423.5C 416.333,421.5 418.667,419.5 421,417.5C 421.198,411.821 421.198,406.155 421,400.5C 425.699,395.466 430.699,390.8 436,386.5C 436.667,381.5 436.667,376.5 436,371.5C 434.337,363.536 433.337,355.536 433,347.5C 434.966,343.52 436.966,339.52 439,335.5C 446.42,328.084 453.087,320.084 459,311.5C 463.548,304.415 466.381,296.749 467.5,288.5C 461.92,289.049 456.42,290.049 451,291.5C 449.564,291.441 448.231,291.108 447,290.5C 443.066,283.633 438.399,277.3 433,271.5C 428.336,257.049 422.503,243.049 415.5,229.5C 416.813,227.115 418.48,226.948 420.5,229C 426.673,236.512 430.839,245.012 433,254.5C 436.451,257.956 439.118,261.956 441,266.5C 442.84,272.532 444.673,278.532 446.5,284.5C 458.281,279.11 469.615,272.943 480.5,266C 485.501,261.175 489.501,255.675 492.5,249.5C 489.572,244.902 485.906,240.902 481.5,237.5C 478.401,240.863 474.735,242.196 470.5,241.5C 469.985,239.775 469.318,238.108 468.5,236.5C 467.575,237.641 466.741,237.641 466,236.5C 462.715,231.611 460.882,226.278 460.5,220.5C 462.199,220.34 463.866,220.506 465.5,221C 468.801,229.816 475.134,233.816 484.5,233C 486.888,234.861 489.554,236.194 492.5,237C 498.681,237.172 504.681,237.672 510.5,238.5C 510.232,240.099 510.566,241.432 511.5,242.5C 511.5,251.167 511.5,259.833 511.5,268.5C 508.041,322.062 490.041,370.062 457.5,412.5C 459.266,404.506 461.099,396.506 463,388.5C 463.667,384.833 463.667,381.167 463,377.5C 462.586,377.043 462.086,376.709 461.5,376.5C 457.482,381.352 452.982,385.685 448,389.5C 446.776,394.386 446.109,399.386 446,404.5C 442.873,409.783 442.873,415.117 446,420.5C 447.011,421.337 448.178,421.67 449.5,421.5C 411.4,466.647 363.067,495.147 304.5,507C 293.732,508.844 283.065,510.344 272.5,511.5C 260.833,511.5 249.167,511.5 237.5,511.5C 199.851,508.587 164.518,497.92 131.5,479.5C 133.176,478.817 133.843,477.483 133.5,475.5C 139.033,474.651 143.866,472.317 148,468.5C 149.013,464.256 148.18,460.423 145.5,457C 147.796,456.909 150.13,457.076 152.5,457.5C 154.634,457.485 156.634,456.985 158.5,456C 161.444,449.279 165.277,443.112 170,437.5C 172.409,431.021 175.075,424.688 178,418.5C 182.693,415.071 187.859,412.571 193.5,411C 199.787,401.152 202.621,390.318 202,378.5C 208.555,371.392 212.388,363.058 213.5,353.5C 213.167,352.5 212.833,351.5 212.5,350.5C 207.825,348.164 203.492,345.331 199.5,342C 196.833,341.667 194.167,341.333 191.5,341C 184.701,337.191 177.701,333.857 170.5,331C 168.539,327.785 167.373,324.285 167,320.5C 165.533,317.734 163.7,315.234 161.5,313C 149.795,310.313 140.128,304.313 132.5,295C 131,294.5 129.5,294 128,293.5C 125.213,294.517 122.38,294.684 119.5,294C 115.562,290.789 111.228,289.956 106.5,291.5C 105.269,290.349 105.269,289.183 106.5,288C 106,287.833 105.5,287.667 105,287.5C 99.3879,291.441 94.0546,295.774 89,300.5C 87.53,298.848 85.6967,297.848 83.5,297.5C 78.2267,300.806 74.06,299.806 71,294.5C 70.7918,288.449 70.2918,282.449 69.5,276.5C 68.9747,275.808 68.3081,275.308 67.5,275C 63.5138,274.501 59.5138,274.334 55.5,274.5C 56.8572,267.738 58.5239,261.071 60.5,254.5C 57.8127,254.336 55.146,254.503 52.5,255C 50.8387,257.964 49.1721,260.964 47.5,264C 42.8597,266.15 38.3597,265.984 34,263.5C 31.5475,257.69 29.7142,251.69 28.5,245.5C 29.2255,240.814 30.0588,236.147 31,231.5C 31.7922,229.413 32.9588,227.579 34.5,226C 40.0555,224.761 45.7222,224.094 51.5,224C 53.5126,222.743 55.6793,221.909 58,221.5C 62.0224,222.942 66.1891,223.775 70.5,224C 72.9186,229.073 75.252,234.24 77.5,239.5C 78.325,240.386 79.325,240.719 80.5,240.5C 79.3239,232.498 78.4906,224.498 78,216.5C 80.6667,211.167 84.6667,207.167 90,204.5C 91.9694,200.768 92.9694,196.768 93,192.5C 95.7723,186.769 99.6057,181.935 104.5,178C 105.793,177.51 107.127,177.343 108.5,177.5C 109.193,168.631 114.026,163.298 123,161.5C 123.5,161.833 124,162.167 124.5,162.5C 122.844,164.412 122.511,166.412 123.5,168.5C 129.122,165.528 134.455,162.195 139.5,158.5C 139.192,157.692 138.692,157.025 138,156.5C 135.769,158.377 133.269,159.21 130.5,159C 127.794,156.629 125.461,153.963 123.5,151C 124.833,149.667 126.167,148.333 127.5,147C 126.833,146.667 126.167,146.333 125.5,146C 121.214,145.505 117.214,146.172 113.5,148C 120.336,140.685 128.669,138.351 138.5,141C 140.844,140.163 142.844,138.829 144.5,137C 145.833,136.333 147.167,136.333 148.5,137C 146.407,141.776 144.407,146.609 142.5,151.5C 145.743,152.596 149.076,153.263 152.5,153.5C 154.693,153.674 156.527,153.007 158,151.5C 158.497,149.19 158.663,146.857 158.5,144.5C 155.956,144.896 153.789,144.229 152,142.5C 151.73,139.776 151.23,137.109 150.5,134.5C 152.117,132.368 152.617,130.035 152,127.5C 146.711,123.88 141.711,119.88 137,115.5C 133.651,108.802 130.318,102.136 127,95.5C 123.992,98.8664 120.992,102.2 118,105.5C 114.616,101.758 111.95,97.4243 110,92.5C 103.743,86.294 96.243,83.9606 87.5,85.5C 87.3338,91.8421 87.5005,98.1754 88,104.5C 93.5137,111.377 92.1804,116.71 84,120.5C 84.0932,124.826 84.0932,129.159 84,133.5C 82.8293,135.616 81.3293,136.282 79.5,135.5C 77.2954,130.259 74.962,125.092 72.5,120C 63.4742,116.152 54.4742,112.318 45.5,108.5C 60.1057,87.2275 77.7723,68.8941 98.5,53.5C 100.829,55.837 102.329,58.5037 103,61.5C 100.833,64.3333 98.6667,67.1667 96.5,70C 92.1789,69.5675 88.8456,71.0675 86.5,74.5C 91.5453,74.5249 96.5453,75.0249 101.5,76C 106.453,81.7295 112.62,85.5628 120,87.5C 120.5,87.1667 121,86.8333 121.5,86.5C 113.225,78.452 114.225,77.452 124.5,83.5C 126.339,81.4729 126.839,79.1396 126,76.5C 123.667,74.5 121.333,72.5 119,70.5C 118.202,68.7412 118.369,67.0745 119.5,65.5C 122.681,67.5917 125.681,69.925 128.5,72.5C 130.823,69.8739 133.157,67.2072 135.5,64.5C 130.192,60.842 124.525,57.6753 118.5,55C 118.336,52.3012 118.17,49.4679 118,46.5C 116.008,45.6719 114.508,44.3386 113.5,42.5C 125.193,33.9812 137.86,26.9812 151.5,21.5C 150.671,23.9335 151.171,26.2668 153,28.5C 153.498,31.8168 153.665,35.1501 153.5,38.5C 157.847,39.1151 161.847,40.6151 165.5,43C 162.833,43.3333 160.167,43.6667 157.5,44C 156.5,45.6667 155.5,47.3333 154.5,49C 157.432,49.9533 160.432,50.4533 163.5,50.5C 163.5,49.5 163.5,48.5 163.5,47.5C 162.325,47.719 161.325,47.3857 160.5,46.5C 164.737,45.9091 166.57,47.9091 166,52.5C 161.517,53.8189 159.017,56.8189 158.5,61.5C 161.506,70.5145 165.34,79.1811 170,87.5C 175.495,92.0957 181.661,94.929 188.5,96C 191.536,87.1622 195.203,78.6622 199.5,70.5C 207.703,69.8987 214.37,66.3987 219.5,60C 228.281,56.971 236.948,53.6377 245.5,50C 246.357,49.3109 247.023,48.4776 247.5,47.5C 244.833,46.5 242.167,45.5 239.5,44.5C 239.977,43.5224 240.643,42.6891 241.5,42C 245.042,42.2567 248.376,43.4234 251.5,45.5C 251.777,40.8427 251.11,36.176 249.5,31.5C 252.607,28.4396 255.941,25.6063 259.5,23C 258.313,21.9805 257.313,20.8139 256.5,19.5C 257.811,18.7425 258.311,17.7425 258,16.5C 256.264,14.9368 254.764,13.2701 253.5,11.5C 256.167,10.8333 258.833,10.1667 261.5,9.5C 260.543,6.83175 258.543,5.33175 255.5,5C 260.81,3.20171 260.476,2.20171 254.5,2C 253.402,1.23029 253.402,0.396953 254.5,-0.5 Z"/></g><g transform="matrix(1, 0, 0, 1, -14.440874, -10.830119)"><path style="opacity:1" fill="#295fa6" d="M 261.5,9.5 C 258.833,10.1667 256.167,10.8333 253.5,11.5C 252.957,11.44 252.624,11.1067 252.5,10.5C 255.428,9.51592 258.428,9.18259 261.5,9.5 Z"/></g><g transform="matrix(1, 0, 0, 1, -14.440874, -10.830119)"><path style="opacity: 1;" fill="#295fa6" d="M 422.5,65.5 C 423.919,66.4511 425.585,66.7845 427.5,66.5C 429.858,68.5293 432.192,70.5293 434.5,72.5C 433.791,73.404 432.791,73.7373 431.5,73.5C 429.051,72.9426 426.718,72.9426 424.5,73.5C 425.605,74.8924 426.939,76.059 428.5,77C 426.029,77.7063 423.695,77.373 421.5,76C 418.962,72.5533 417.295,68.72 416.5,64.5C 418.565,64.5172 420.565,64.8505 422.5,65.5 Z"/></g><g transform="matrix(1, 0, 0, 1, -14.440874, -10.830119)"><path style="opacity:1" fill="#fff" d="M 248.5,66.5 C 251.179,66.6726 253.513,67.6726 255.5,69.5C 260.579,67.0509 265.913,66.2175 271.5,67C 276.992,70.8708 276.658,74.2041 270.5,77C 262.744,82.5086 255.91,81.6753 250,74.5C 249.508,73.451 249.674,72.451 250.5,71.5C 248.833,70.8333 247.167,70.1667 245.5,69.5C 246.77,68.7124 247.77,67.7124 248.5,66.5 Z"/></g><g transform="matrix(1, 0, 0, 1, -14.440874, -10.830119)"><path style="opacity:1" fill="#fff" d="M 302.5,103.5 C 306.584,102.945 307.251,103.945 304.5,106.5C 306.5,107.167 308.5,107.833 310.5,108.5C 309.071,110.331 308.571,112.331 309,114.5C 312.667,119.833 316.333,125.167 320,130.5C 320.855,133.956 319.689,136.456 316.5,138C 311.474,139.086 306.474,139.753 301.5,140C 302.833,138.667 304.167,137.333 305.5,136C 304.272,135.221 303.272,134.221 302.5,133C 304.05,130.063 305.716,127.23 307.5,124.5C 304.188,121.336 301.354,117.669 299,113.5C 298.333,111.5 298.333,109.5 299,107.5C 300.376,106.295 301.542,104.962 302.5,103.5 Z"/></g><g transform="matrix(1, 0, 0, 1, -14.440874, -10.830119)"><path style="opacity:1" fill="#fff" d="M 294.5,118.5 C 296.39,118.297 297.89,118.963 299,120.5C 300.857,129.812 297.023,134.479 287.5,134.5C 287.335,131.15 287.502,127.817 288,124.5C 290.063,122.266 292.229,120.266 294.5,118.5 Z"/></g><g transform="matrix(1, 0, 0, 1, -14.440874, -10.830119)"><path style="opacity:1" fill="#295fa6" d="M 427.5,153.5 C 428.552,153.351 429.552,153.517 430.5,154C 428.455,156.586 426.789,159.42 425.5,162.5C 428.91,165.288 432.41,167.955 436,170.5C 438.84,172.951 439.006,175.451 436.5,178C 432.833,178.667 429.167,178.667 425.5,178C 422.656,176.576 419.656,175.743 416.5,175.5C 412.685,176.271 408.852,176.938 405,177.5C 399.545,178.143 397.545,175.81 399,170.5C 401.5,166 404,161.5 406.5,157C 407.833,156.333 409.167,156.333 410.5,157C 412.631,159.448 414.631,161.948 416.5,164.5C 418.167,163.667 419.833,162.833 421.5,162C 420.315,160.647 418.981,159.48 417.5,158.5C 420.902,156.82 424.235,155.154 427.5,153.5 Z"/></g><g transform="matrix(1, 0, 0, 1, -14.440874, -10.830119)"><path style="opacity:1" fill="#295fa6" d="M 465.5,154.5 C 468.482,154.104 471.149,154.771 473.5,156.5C 470.833,159.5 468.167,162.5 465.5,165.5C 468.306,171.472 472.639,175.972 478.5,179C 476.369,179.543 474.369,180.376 472.5,181.5C 473.992,186.47 475.326,191.47 476.5,196.5C 472.812,196.219 469.145,195.719 465.5,195C 463.714,194.215 462.214,193.049 461,191.5C 460.531,188.056 461.031,184.722 462.5,181.5C 459.881,175.932 457.548,170.265 455.5,164.5C 455.667,163.5 455.833,162.5 456,161.5C 459.145,159.024 462.312,156.69 465.5,154.5 Z"/></g><g transform="matrix(1, 0, 0, 1, -14.440874, -10.830119)"><path style="opacity: 1;" fill="#295fa6" d="M -0.5,243.5 C -0.166667,243.5 0.166667,243.5 0.5,243.5C 3.5353,248.763 5.70197,254.43 7,260.5C 16.7277,269.958 28.2277,274.791 41.5,275C 47.3269,279.75 53.6602,283.75 60.5,287C 62.5628,289.511 64.0628,292.344 65,295.5C 69.3112,299.56 74.1445,302.394 79.5,304C 80.5196,302.444 81.853,301.278 83.5,300.5C 84.6473,300.818 85.4806,301.484 86,302.5C 88.2854,307.972 88.9521,313.638 88,319.5C 85.3333,323.5 82.6667,327.5 80,331.5C 79.2829,335.045 79.4496,338.545 80.5,342C 77.129,345.743 76.629,349.91 79,354.5C 84.7807,363.727 89.7807,373.394 94,383.5C 95.1411,385.609 96.6411,387.442 98.5,389C 102.44,390.886 105.94,393.386 109,396.5C 108.871,418.312 107.037,439.978 103.5,461.5C 42.4225,415.37 7.75579,354.037 -0.5,277.5C -0.5,266.167 -0.5,254.833 -0.5,243.5 Z"/></g></svg>