<?xml version="1.0" encoding="utf-8"?>
<svg fill="#102031" xmlns="http://www.w3.org/2000/svg" viewBox="51.533 74.206 24.142 15.605" xmlns:bx="https://boxy-svg.com" width="100px" height="64.6383895286px"><defs><bx:export><bx:file format="svg" path="toyota.svg" width="100" height="64.6383895286"/></bx:export></defs><title>Toyota icon</title><path d="M 63.618 74.251 C 56.991 74.251 51.618 77.727 51.618 82.013 C 51.618 86.302 56.991 89.779 63.618 89.779 C 70.245 89.779 75.618 86.303 75.618 82.013 C 75.618 77.723 70.245 74.251 63.618 74.251 L 63.618 74.251 Z M 63.618 86.447 C 62.632 86.447 61.828 84.505 61.778 82.062 C 63.002 82.169 64.233 82.169 65.458 82.062 C 65.408 84.504 64.604 86.447 63.618 86.447 Z M 61.899 80.123 C 62.167 78.396 62.836 77.17 63.618 77.17 C 64.4 77.17 65.068 78.396 65.337 80.123 C 64.193 80.225 63.042 80.225 61.899 80.123 L 61.899 80.123 Z M 63.618 75.373 C 62.331 75.373 61.233 77.301 60.828 79.992 C 58.388 79.612 56.685 78.744 56.685 77.736 C 56.685 76.376 59.789 75.275 63.618 75.275 C 67.448 75.275 70.551 76.377 70.551 77.736 C 70.551 78.744 68.848 79.612 66.408 79.992 C 66.003 77.302 64.905 75.374 63.618 75.374 L 63.618 75.373 Z M 53.338 81.723 C 53.338 80.408 53.845 79.173 54.726 78.113 C 54.717 78.187 54.711 78.263 54.711 78.339 C 54.711 79.996 57.196 81.409 60.664 81.929 C 60.661 82.049 60.661 82.171 60.661 82.293 C 60.661 85.383 61.527 87.998 62.724 88.886 C 57.464 88.569 53.339 85.483 53.339 81.723 L 53.338 81.723 Z M 64.512 88.886 C 65.709 87.998 66.575 85.382 66.575 82.293 C 66.575 82.17 66.573 82.05 66.572 81.93 C 70.038 81.41 72.525 79.998 72.525 78.339 C 72.525 78.263 72.519 78.187 72.51 78.113 C 73.391 79.176 73.897 80.408 73.897 81.723 C 73.897 85.483 69.772 88.569 64.512 88.886 L 64.512 88.886 Z M 64.512 88.886 Z"/></svg>