<?xml version="1.0" standalone="no"?>
<!DOCTYPE svg PUBLIC "-//W3C//DTD SVG 20010904//EN"
 "http://www.w3.org/TR/2001/REC-SVG-20010904/DTD/svg10.dtd">
<svg version="1.0" xmlns="http://www.w3.org/2000/svg"
 width="270.000000pt" height="151.000000pt" viewBox="0 0 270.000000 151.000000"
 preserveAspectRatio="xMidYMid meet">

<g transform="translate(0.000000,151.000000) scale(0.100000,-0.100000)"
fill="#102031" stroke="none">
<path d="M912 1468 c8 -13 70 -120 138 -238 68 -118 134 -232 147 -252 l23
-38 168 0 168 0 77 -134 78 -134 -81 -131 c-44 -72 -80 -132 -80 -134 0 -1
144 -2 319 -2 176 0 318 2 316 5 -1 3 -103 178 -225 390 -123 212 -263 453
-310 535 l-87 150 -333 3 -332 2 14 -22z"/>
<path d="M887 932 c-14 -3 -157 -213 -172 -254 -4 -10 24 -62 77 -145 l84
-128 169 5 168 5 78 128 78 128 -77 129 -76 129 -156 3 c-87 2 -164 2 -173 0z"/>
<path d="M2140 180 l0 -170 30 0 30 0 0 170 0 170 -30 0 -30 0 0 -170z"/>
<path d="M720 235 c0 -23 3 -25 53 -26 76 -2 111 -12 115 -32 3 -15 -5 -17
-63 -17 -36 0 -74 -4 -84 -10 -28 -15 -44 -61 -32 -94 16 -40 54 -51 159 -48
l92 3 0 89 c0 143 -17 160 -155 160 -84 0 -85 0 -85 -25z m170 -150 c0 -23 -4
-25 -42 -25 -51 0 -73 12 -65 34 5 12 20 16 57 16 47 0 50 -2 50 -25z"/>
<path d="M980 135 l0 -125 35 0 34 0 3 97 3 96 32 1 c28 1 32 -3 38 -31 8 -45
38 -63 108 -63 44 0 59 -4 64 -16 10 -26 -15 -33 -94 -27 l-73 6 0 -32 0 -31
98 0 c107 0 132 11 132 58 0 12 5 22 10 22 6 0 10 -6 10 -13 0 -39 99 -80 169
-69 27 4 31 8 31 33 0 29 -1 29 -55 28 -51 -2 -85 11 -85 32 0 5 32 9 70 9 68
0 70 1 70 25 0 24 -2 25 -65 25 -50 0 -65 3 -65 14 0 19 33 29 88 28 40 0 42
1 42 29 0 29 0 29 -59 29 -33 0 -71 -4 -85 -10 -34 -12 -66 -66 -66 -109 l0
-34 -25 27 c-21 23 -32 26 -85 26 -45 0 -62 4 -67 15 -10 28 5 33 108 34 51 1
56 3 54 24 -2 21 -6 22 -90 25 -77 2 -93 0 -117 -18 l-28 -21 0 21 c0 21 -7
22 -57 3 -7 -3 -13 0 -13 6 0 6 -16 11 -35 11 l-35 0 0 -125z"/>
<path d="M1610 135 l0 -125 35 0 35 0 0 95 c0 99 1 100 45 95 34 -3 44 -28 43
-109 l-1 -76 34 0 34 0 2 75 c4 140 -23 170 -157 170 l-70 0 0 -125z"/>
<path d="M1872 233 c3 -26 5 -27 73 -28 74 0 95 -7 95 -31 0 -11 -16 -14 -69
-14 -86 0 -115 -19 -115 -75 0 -62 26 -75 151 -75 l105 0 -4 101 c-3 96 -4
102 -31 125 -25 22 -37 24 -118 24 l-90 0 3 -27z m163 -148 c0 -16 -8 -21 -43
-23 -51 -4 -79 13 -60 35 7 9 27 13 57 11 38 -3 46 -6 46 -23z"/>
</g>
</svg>
