<?xml version="1.0" standalone="no"?>
<!DOCTYPE svg PUBLIC "-//W3C//DTD SVG 20010904//EN"
 "http://www.w3.org/TR/2001/REC-SVG-20010904/DTD/svg10.dtd">
<svg version="1.0" xmlns="http://www.w3.org/2000/svg"
 width="1182.000000pt" height="1182.000000pt" viewBox="0 0 1182.000000 1182.000000"
 preserveAspectRatio="xMidYMid meet">

<g transform="translate(0.000000,1182.000000) scale(0.100000,-0.100000)"
fill="#102031" stroke="none">
<path d="M4610 11379 c-625 -54 -1207 -201 -1765 -445 -322 -140 -734 -377
-998 -572 l-58 -43 33 -46 c18 -25 39 -48 45 -50 7 -3 30 8 50 25 138 108 455
303 688 423 1046 539 2238 714 3397 498 2039 -380 3678 -1925 4180 -3941 l52
-208 68 0 c66 0 68 1 64 23 -101 470 -254 910 -463 1327 -265 532 -568 958
-983 1383 -432 444 -906 790 -1460 1066 -601 299 -1169 466 -1865 547 -155 18
-825 27 -985 13z"/>
<path d="M4720 10270 c-777 -63 -1485 -309 -2115 -736 -60 -41 -120 -82 -132
-92 l-22 -17 60 -80 c33 -44 64 -84 68 -88 5 -5 64 29 132 76 545 372 1133
598 1794 688 191 26 668 37 866 20 1362 -119 2558 -887 3234 -2076 135 -237
266 -537 340 -780 56 -184 37 -165 165 -165 100 0 110 2 110 18 0 25 -61 231
-105 354 -313 882 -907 1642 -1690 2165 -569 380 -1223 617 -1925 699 -158 18
-626 27 -780 14z"/>
<path d="M4860 9358 c-361 -14 -733 -95 -1090 -235 -215 -85 -520 -249 -689
-371 -36 -26 -69 -50 -74 -54 -10 -6 170 -261 182 -256 3 2 61 40 128 85 692
463 1526 626 2342 457 714 -147 1366 -553 1814 -1129 165 -211 334 -503 432
-742 l38 -93 163 0 c100 0 164 4 164 10 0 18 -72 203 -126 322 -106 238 -273
511 -444 728 -112 141 -418 444 -560 554 -420 325 -869 538 -1370 649 -297 67
-572 89 -910 75z"/>
<path d="M4790 8483 c-733 -75 -1377 -443 -1818 -1040 -225 -306 -395 -718
-457 -1113 -22 -142 -31 -475 -16 -626 112 -1118 937 -2029 2036 -2249 173
-35 290 -45 504 -45 409 0 760 82 1120 261 269 134 441 259 666 484 208 207
328 367 452 601 29 55 53 106 53 112 0 9 -71 12 -269 12 l-268 0 -38 -57
c-203 -307 -493 -563 -820 -725 -398 -198 -886 -257 -1331 -163 -808 171
-1448 827 -1598 1636 -50 270 -47 517 10 797 91 454 355 887 720 1181 282 228
605 372 979 438 158 27 491 24 660 -6 561 -100 1045 -412 1363 -878 l56 -83
268 0 c176 0 268 4 268 10 0 39 -154 297 -267 448 -412 549 -1040 913 -1723
997 -113 14 -447 19 -550 8z"/>
<path d="M4882 7100 c-253 -36 -487 -153 -668 -334 -371 -370 -446 -931 -188
-1393 46 -83 135 -193 220 -273 247 -232 604 -346 940 -299 242 33 492 157
663 328 226 226 341 512 341 847 l0 124 -580 0 -580 0 0 -150 0 -150 426 0
426 0 -8 -32 c-100 -457 -557 -756 -1012 -662 -457 94 -761 538 -678 994 50
271 223 500 472 621 320 157 701 102 954 -138 46 -43 74 -62 82 -57 28 17 208
178 208 186 0 4 -28 35 -62 69 -150 146 -347 253 -558 300 -98 22 -306 32
-398 19z"/>
<path d="M7055 6584 c-94 -20 -219 -83 -288 -145 -293 -261 -297 -706 -9 -970
246 -225 626 -224 875 3 l52 47 -65 59 -65 60 -41 -38 c-192 -176 -484 -166
-662 24 -59 63 -107 146 -118 206 l-6 30 557 0 557 0 -4 118 c-4 92 -10 131
-30 184 -97 259 -320 423 -588 434 -62 2 -119 -2 -165 -12z m286 -184 c71 -21
157 -78 209 -138 41 -46 94 -144 106 -194 l6 -28 -467 0 -467 0 6 30 c11 56
57 139 107 194 132 145 312 194 500 136z"/>
<path d="M8610 6584 c-180 -38 -359 -179 -438 -344 -93 -195 -94 -391 -1 -580
84 -171 260 -306 449 -346 200 -42 418 19 575 160 l50 45 -60 55 c-33 30 -63
55 -68 56 -4 0 -31 -19 -60 -43 -245 -199 -594 -123 -733 159 -36 71 -39 85
-42 180 -4 85 -1 113 17 167 74 221 290 358 516 326 98 -14 160 -41 243 -107
l44 -35 61 62 62 61 -45 40 c-61 54 -210 127 -295 145 -86 18 -189 18 -275 -1z"/>
<path d="M9935 6584 c-233 -51 -429 -241 -490 -474 -23 -85 -23 -235 0 -320
90 -341 425 -548 769 -475 182 38 354 172 434 335 55 111 72 183 72 300 0 116
-17 189 -70 295 -103 209 -309 341 -550 351 -62 2 -119 -2 -165 -12z m273
-181 c75 -19 163 -73 217 -135 173 -196 165 -470 -19 -654 -144 -144 -354
-180 -536 -92 -78 38 -184 140 -219 211 -144 297 34 639 359 686 65 10 112 6
198 -16z"/>
<path d="M1623 5788 c28 -753 320 -1483 830 -2073 52 -60 116 -130 142 -155
l47 -45 109 114 108 114 -94 98 c-221 230 -447 573 -574 871 -156 365 -237
713 -257 1116 l-7 132 -155 0 -155 0 6 -172z"/>
<path d="M7905 4788 c-161 -392 -393 -739 -694 -1038 -549 -545 -1265 -859
-2040 -896 l-141 -7 0 -159 0 -159 113 6 c373 20 655 71 967 175 499 166 919
424 1299 795 300 293 518 593 691 950 65 135 151 341 165 398 l7 27 -164 0
-165 0 -38 -92z"/>
<path d="M8997 4873 c-3 -5 -24 -69 -47 -143 -160 -511 -421 -990 -775 -1417
-115 -139 -369 -393 -508 -508 -707 -585 -1523 -905 -2432 -955 -99 -5 -186
-10 -192 -10 -10 0 -13 -29 -13 -112 l0 -111 173 6 c1349 50 2598 736 3385
1857 267 381 495 864 615 1308 l26 92 -114 0 c-63 0 -116 -3 -118 -7z"/>
<path d="M10220 4823 c-23 -115 -92 -370 -141 -522 -547 -1677 -1901 -2978
-3603 -3461 -380 -108 -769 -170 -1208 -192 l-238 -12 0 -67 0 -66 138 4
c1404 42 2679 584 3675 1563 732 718 1233 1597 1476 2590 21 85 41 170 44 188
l7 32 -70 0 -69 0 -11 -57z"/>
</g>
</svg>
