<?xml version="1.0" standalone="no"?>
<!DOCTYPE svg PUBLIC "-//W3C//DTD SVG 20010904//EN"
 "http://www.w3.org/TR/2001/REC-SVG-20010904/DTD/svg10.dtd">
<svg version="1.0" xmlns="http://www.w3.org/2000/svg"
 width="386.000000pt" height="118.000000pt" viewBox="0 0 386.000000 118.000000"
 preserveAspectRatio="xMidYMid meet">

<g transform="translate(0.000000,118.000000) scale(0.100000,-0.100000)"
fill="#102031" stroke="none">
<path d="M2345 1053 c-66 -214 -176 -567 -198 -635 -12 -38 -26 -68 -32 -69
-14 -1 -75 178 -213 626 -25 83 -50 156 -55 163 -7 9 -63 12 -221 12 -116 0
-221 -3 -233 -6 -18 -5 -23 -14 -23 -37 l0 -30 -23 21 c-13 12 -33 22 -45 22
l-22 0 2 -527 c3 -488 4 -528 20 -531 9 -2 25 6 35 17 24 29 33 26 33 -8 0
-17 6 -31 16 -35 9 -3 69 -6 135 -6 l119 0 1 413 c1 226 2 421 3 431 4 53 27
10 84 -156 181 -521 231 -665 237 -681 7 -16 21 -17 148 -15 l140 3 73 210
c41 116 81 228 88 250 8 22 42 119 75 215 34 96 65 178 70 183 17 17 21 -64
20 -457 0 -247 3 -401 9 -405 6 -3 67 -5 136 -3 l126 3 0 575 0 574 -234 0
-235 0 -36 -117z"/>
<path d="M2932 598 l3 -573 80 3 c298 10 613 152 733 331 58 87 77 150 76 248
-1 69 -6 92 -32 147 -95 204 -376 365 -707 405 -49 6 -105 11 -123 11 l-32 0
2 -572z m400 268 c68 -21 144 -62 189 -103 144 -130 95 -317 -106 -409 -75
-34 -143 -52 -215 -56 l-45 -3 -3 299 -2 299 68 -7 c38 -4 89 -13 114 -20z"/>
<path d="M845 983 c-166 -22 -409 -73 -398 -84 4 -4 73 -31 153 -59 192 -68
200 -71 200 -81 0 -5 -5 -9 -11 -9 -5 0 -76 -11 -157 -25 -265 -44 -326 -54
-432 -70 -138 -21 -146 -25 -80 -41 30 -7 87 -20 125 -29 39 -10 97 -23 130
-30 178 -38 225 -50 225 -58 0 -10 -28 -22 -195 -82 -137 -49 -142 -52 -133
-60 12 -13 150 -58 261 -86 179 -46 337 -69 469 -69 110 0 118 1 146 25 17 14
37 47 46 73 26 73 39 234 33 382 -9 209 -36 278 -116 300 -34 9 -202 11 -266
3z"/>
</g>
</svg>
