<?xml version="1.0" standalone="no"?>
<!DOCTYPE svg PUBLIC "-//W3C//DTD SVG 20010904//EN"
 "http://www.w3.org/TR/2001/REC-SVG-20010904/DTD/svg10.dtd">
<svg version="1.0" xmlns="http://www.w3.org/2000/svg"
 width="512.000000pt" height="512.000000pt" viewBox="0 0 512.000000 512.000000"
 preserveAspectRatio="xMidYMid meet">

<g transform="translate(0.000000,512.000000) scale(0.100000,-0.100000)"
fill="#102031" stroke="none">
<path d="M3508 4923 c7 -3 16 -2 19 1 4 3 -2 6 -13 5 -11 0 -14 -3 -6 -6z"/>
<path d="M3568 4913 c7 -3 16 -2 19 1 4 3 -2 6 -13 5 -11 0 -14 -3 -6 -6z"/>
<path d="M3675 4890 c39 -10 61 -19 50 -20 -11 -1 45 -19 125 -40 665 -177
1036 -439 1131 -797 24 -91 36 -331 21 -428 -8 -48 -9 -30 -6 90 2 93 0 135
-5 110 -6 -31 -8 -34 -10 -13 l-1 26 -30 -30 c-16 -16 -30 -36 -30 -44 0 -8
-6 -17 -14 -20 -7 -3 -37 -27 -65 -55 -38 -36 -47 -51 -37 -55 12 -5 13 -9 3
-19 -10 -12 -14 -11 -24 1 -8 11 -13 12 -18 3 -4 -6 -2 -15 5 -19 7 -4 9 -13
5 -20 -6 -9 -9 -9 -15 0 -10 17 -51 -11 -82 -55 -12 -19 -26 -35 -30 -35 -5 0
-8 -7 -8 -15 0 -9 6 -12 18 -9 13 5 14 4 3 -4 -8 -6 -20 -8 -28 -5 -7 3 -13 0
-13 -6 0 -6 -6 -11 -14 -11 -18 0 -28 -27 -13 -34 7 -3 2 -3 -10 0 -23 5 -33
-11 -11 -18 9 -3 9 -6 0 -12 -7 -4 -12 -3 -12 3 0 6 -7 8 -15 5 -10 -4 -13
-13 -9 -26 5 -16 2 -19 -13 -14 -21 7 -48 -27 -37 -46 4 -6 3 -8 -3 -5 -5 3
-20 -1 -32 -10 -17 -11 -20 -18 -11 -23 8 -5 10 -15 5 -26 -8 -18 -8 -18 -12
-1 -3 13 -11 17 -23 14 -18 -5 -18 8 -1 38 3 6 7 21 8 35 1 14 -21 -42 -51
-125 -29 -82 -65 -180 -79 -218 l-26 -67 301 2 301 3 44 130 c146 435 185 769
118 1030 -22 86 -86 210 -145 282 -199 241 -623 444 -1156 553 -117 24 -144
24 -49 0z m1075 -1368 c-8 -3 -27 -19 -42 -36 -16 -17 -28 -27 -28 -21 0 16
63 74 74 68 6 -4 4 -8 -4 -11z m237 -29 c-3 -10 -5 -2 -5 17 0 19 2 27 5 18 2
-10 2 -26 0 -35z m-10 -45 c-3 -8 -6 -5 -6 6 -1 11 2 17 5 13 3 -3 4 -12 1
-19z m-10 -60 c-3 -8 -6 -5 -6 6 -1 11 2 17 5 13 3 -3 4 -12 1 -19z m-452 -98
c3 -5 1 -10 -4 -10 -6 0 -11 5 -11 10 0 6 2 10 4 10 3 0 8 -4 11 -10z m-105
-110 c0 -5 -2 -10 -4 -10 -3 0 -8 5 -11 10 -3 6 -1 10 4 10 6 0 11 -4 11 -10z
m-23 -35 c-15 -16 -19 -13 -11 9 3 9 10 13 15 10 5 -3 3 -11 -4 -19z"/>
<path d="M2225 4860 c-653 -52 -1155 -211 -1403 -443 -58 -55 -142 -161 -142
-180 0 -7 16 13 36 43 49 73 96 122 174 179 66 49 189 121 206 121 5 0 -20
-16 -56 -36 -139 -78 -245 -171 -314 -276 -150 -229 -118 -638 95 -1212 l61
-166 1672 0 1671 0 24 63 c162 425 224 687 225 942 0 205 -34 314 -138 439
-51 62 -166 154 -251 201 -72 41 -89 57 -24 24 79 -40 184 -112 244 -167 l60
-56 -55 57 c-213 223 -677 389 -1260 452 -171 19 -666 28 -825 15z m-1125
-625 c0 -23 4 -25 43 -25 31 0 49 6 62 20 18 20 31 20 1005 20 543 0 989 -2
991 -5 3 -2 63 -7 135 -9 190 -7 399 -64 597 -162 128 -63 247 -152 247 -184
0 -3 -100 12 -222 33 -209 36 -239 39 -484 44 l-262 5 -6 -28 -6 -29 -928 2
c-510 1 -960 4 -999 6 -40 3 -75 1 -78 -4 -8 -13 -85 -11 -85 2 0 6 -18 9 -47
8 l-48 -3 -3 153 c-3 170 0 181 54 181 30 0 34 -3 34 -25z m3090 -507 c-87
-169 -568 -358 -912 -358 -45 0 -78 -4 -78 -10 0 -7 -334 -10 -982 -10 l-981
0 -33 25 c-21 16 -46 25 -68 25 -33 0 -36 -2 -36 -31 0 -29 -1 -30 -42 -27
l-43 3 -3 179 -2 179 77 -8 c43 -5 188 -8 323 -7 135 1 593 3 1017 4 827 3
783 6 783 -45 0 -15 3 -18 8 -9 13 19 106 30 332 36 335 11 483 23 547 47 32
11 63 21 70 23 7 1 16 5 19 9 14 13 16 -1 4 -25z"/>
<path d="M4360 4326 c0 -2 8 -10 18 -17 15 -13 16 -12 3 4 -13 16 -21 21 -21
13z"/>
<path d="M4426 3365 c-3 -9 -6 -22 -5 -28 0 -7 5 -1 10 12 5 13 8 26 5 28 -2
2 -6 -3 -10 -12z"/>
<path d="M252 2905 c-11 -13 -10 -15 7 -15 14 0 19 5 15 15 -7 18 -6 18 -22 0z"/>
<path d="M200 2745 c0 -5 5 -17 10 -25 5 -8 10 -10 10 -5 0 6 -5 17 -10 25 -5
8 -10 11 -10 5z"/>
<path d="M150 2735 c0 -5 5 -17 10 -25 5 -8 10 -10 10 -5 0 6 -5 17 -10 25 -5
8 -10 11 -10 5z"/>
<path d="M4926 2672 c-11 -24 -24 -38 -38 -39 -20 -2 -20 0 -4 52 15 48 -98
-199 -319 -695 -131 -294 -242 -541 -248 -547 -7 -10 -337 -13 -1590 -13 -869
0 -1578 -2 -1576 -4 2 -2 150 -29 329 -60 179 -32 334 -59 345 -61 11 -2 61
-50 110 -106 206 -234 431 -401 573 -427 101 -18 206 21 354 130 81 60 249
221 360 346 31 34 64 62 73 62 9 0 15 -4 13 -9 -9 -25 -216 -245 -303 -324
-199 -177 -347 -254 -471 -244 -64 5 -179 51 -245 98 -25 18 -32 19 -47 7 -15
-11 -15 -11 -5 3 10 12 10 18 1 27 -19 19 -32 14 -17 -6 13 -15 12 -16 -3 -3
-10 7 -16 17 -13 21 2 4 -21 29 -53 56 -31 27 -95 85 -142 129 -75 69 -77 71
-22 14 34 -36 59 -69 55 -73 -4 -4 -3 -6 2 -4 12 3 145 -110 145 -124 0 -4 -5
-8 -10 -8 -6 0 -9 5 -8 12 2 7 -1 12 -7 13 -5 0 -15 3 -20 7 -6 4 -12 -3 -12
-15 -2 -14 1 -17 6 -9 5 8 14 2 31 -20 21 -30 22 -31 2 -14 -20 17 -22 17 -28
2 -4 -12 -13 -15 -28 -10 -19 6 -19 5 -7 -10 8 -9 10 -20 6 -24 -4 -4 -10 -1
-12 6 -3 6 -9 12 -15 12 -6 0 -8 -7 -5 -14 4 -11 1 -13 -10 -9 -13 5 -13 3 -4
-15 9 -17 8 -19 -9 -15 -12 3 -22 -1 -26 -11 -3 -9 -12 -16 -20 -16 -8 0 -14
-4 -14 -10 0 -13 -57 -70 -70 -70 -5 0 -10 -4 -10 -10 0 -5 5 -10 11 -10 6 0
2 -12 -9 -27 -11 -16 -21 -32 -22 -36 -4 -15 54 -68 68 -62 7 2 10 1 7 -4 -3
-5 26 -34 63 -63 119 -92 129 -100 67 -59 -248 166 -643 570 -930 948 l-70 93
-148 0 -148 0 -23 53 c-62 139 -459 1005 -504 1097 -28 58 -50 94 -49 80 3
-35 -24 -32 -46 5 -10 16 -16 23 -14 15 15 -47 547 -1291 560 -1307 7 -10 58
-13 191 -13 l182 0 93 -120 c222 -287 511 -597 716 -769 132 -110 316 -231
412 -271 43 -18 112 -39 154 -48 68 -13 84 -13 155 2 311 63 798 483 1272
1098 l83 108 201 2 202 3 109 260 c227 543 447 1078 444 1082 -2 2 -12 -14
-21 -35z m-4679 -51 c2 -22 -29 -22 -35 0 -3 11 -2 12 6 1 7 -11 10 -11 15 2
8 21 12 20 14 -3z m4653 -3 c0 -4 -9 -8 -21 -8 -13 0 -18 -4 -13 -12 4 -7 3
-8 -4 -4 -17 10 -4 32 18 32 11 0 20 -4 20 -8z m-2715 -1806 c-3 -3 -11 0 -18
7 -9 10 -8 11 6 5 10 -3 15 -9 12 -12z m-160 -102 c-10 -11 -21 -17 -24 -14
-3 3 3 12 13 20 28 20 32 17 11 -6z m185 -386 c0 -2 -9 0 -20 6 -11 6 -20 13
-20 16 0 2 9 0 20 -6 11 -6 20 -13 20 -16z m70 -40 c0 -2 -9 0 -20 6 -11 6
-20 13 -20 16 0 2 9 0 20 -6 11 -6 20 -13 20 -16z"/>
<path d="M3742 2649 c-210 -41 -317 -211 -234 -370 36 -69 107 -126 252 -203
138 -74 162 -95 158 -139 -7 -71 -140 -87 -297 -34 l-73 24 -25 -56 c-42 -95
-40 -101 47 -128 143 -46 326 -47 441 -4 68 26 142 88 171 145 34 65 31 156
-7 225 -38 68 -84 106 -237 191 -133 74 -143 88 -95 124 24 18 41 21 105 19
44 -1 103 -10 139 -21 l62 -20 25 76 c24 69 26 92 8 92 -4 0 -19 -32 -32 -71
-21 -61 -27 -69 -45 -65 -77 22 -184 38 -221 33 -54 -6 -94 -31 -94 -58 0 -18
-2 -19 -15 -9 -26 22 -18 58 18 80 42 26 120 26 222 0 43 -11 79 -19 80 -18 1
2 13 36 27 76 l26 73 -23 9 c-91 35 -282 49 -383 29z"/>
<path d="M960 2185 l0 -465 100 0 100 0 1 358 c1 311 2 353 14 327 11 -24 14
-104 15 -372 l0 -343 -91 0 c-60 0 -89 -4 -87 -11 2 -6 42 -11 101 -12 l97 -2
0 310 c0 170 4 305 8 300 5 -6 53 -133 107 -283 l99 -273 70 3 70 3 123 340
c67 187 123 346 123 353 0 6 5 12 10 12 29 0 3 -96 -110 -405 -66 -181 -120
-331 -120 -332 0 -2 -27 -3 -61 -3 -40 0 -59 -4 -57 -11 2 -7 31 -11 73 -11
l70 0 100 275 c55 152 102 278 105 280 3 3 4 -109 2 -249 l-3 -254 145 0 146
0 0 465 0 465 -186 -2 -187 -3 -90 -248 c-50 -136 -94 -244 -97 -240 -4 5 -42
104 -85 221 -43 117 -80 210 -82 208 -3 -2 32 -106 77 -231 45 -124 80 -233
78 -242 -2 -9 -49 107 -104 258 l-101 274 -187 3 -186 2 0 -465z"/>
<path d="M2487 2448 c-4 -112 -7 -321 -7 -465 l0 -263 150 0 150 0 2 183 3
182 185 2 185 2 0 81 0 81 -158 2 -159 2 -1 85 -2 85 203 3 203 2 -3 83 c-4
100 -20 109 -22 12 l-1 -70 -202 -3 -203 -2 0 -101 c0 -76 -3 -100 -12 -97 -9
3 -14 38 -16 116 l-3 112 201 0 200 0 0 85 0 85 -343 0 -344 0 -6 -202z"/>
<path d="M2147 2593 c-4 -3 -7 -208 -7 -455 l0 -448 -130 0 c-97 0 -130 -3
-130 -12 0 -10 34 -13 140 -11 l141 2 -1 462 c0 255 -2 464 -4 466 -1 2 -6 0
-9 -4z"/>
<path d="M3180 2130 l0 -70 -185 0 -185 0 0 -185 0 -185 -135 0 c-101 0 -135
-3 -135 -12 0 -10 35 -13 147 -11 l148 2 3 180 2 181 185 0 185 0 0 85 c0 69
-3 85 -15 85 -12 0 -15 -14 -15 -70z"/>
<path d="M4200 2097 c0 -5 7 -22 17 -40 23 -45 21 -131 -4 -188 -55 -123 -187
-189 -379 -189 -89 0 -198 17 -258 40 -43 16 -45 3 -3 -15 158 -66 381 -71
512 -11 166 75 225 253 130 388 -8 13 -15 19 -15 15z"/>
<path d="M1826 628 c3 -5 10 -6 15 -3 13 9 11 12 -6 12 -8 0 -12 -4 -9 -9z"/>
<path d="M1886 619 c2 -4 -1 -9 -8 -11 -15 -5 -3 -38 14 -37 10 0 10 2 1 6 -7
2 -13 9 -13 14 0 6 6 7 13 3 6 -4 9 -4 5 1 -4 4 0 14 10 21 16 12 15 13 -5 11
-12 0 -20 -4 -17 -8z"/>
</g>
</svg>
